<?xml version="1.0" encoding="UTF-8"?>
<svg width="40px" height="53px" viewBox="0 0 40 53" version="1.1" xmlns="http://www.w3.org/2000/svg" xmlns:xlink="http://www.w3.org/1999/xlink">
    <!-- Generator: Sketch 43.2 (39069) - http://www.bohemiancoding.com/sketch -->
    <title>bell</title>
    <desc>Created with Sketch.</desc>
    <defs></defs>
    <g id="Page-1" stroke="none" stroke-width="1" fill="none" fill-rule="evenodd">
        <g id="iPad-Portrait" transform="translate(-697.000000, -134.000000)" fill="#FFFFFF">
            <g id="Header-Nav" transform="translate(0.000000, 115.000000)">
                <g id="bell" transform="translate(697.000000, 19.000000)">
                    <g id="Layer_1">
                        <g id="Group">
                            <path d="M13.9177591,46.2830664 C13.9176471,46.2967963 13.9167507,46.3104119 13.9167507,46.3241419 C13.9167507,49.7655606 16.6487395,52.5553776 20.0188235,52.5553776 C23.3889076,52.5553776 26.1208964,49.7655606 26.1208964,46.3241419 C26.1208964,46.3104119 26.12,46.2967963 26.119888,46.2830664 L13.9177591,46.2830664 L13.9177591,46.2830664 Z" id="Shape"></path>
                            <path d="M39.5012885,38.4940503 L34.0094118,30.2558352 L34.0094118,19.9778032 C34.0094118,13.0463387 29.1753501,7.26853547 22.7622409,5.96647597 L22.7622409,2.80148741 C22.7621289,1.25434783 21.5338936,0 20.0187115,0 C18.5035294,0 17.2752941,1.25434783 17.2752941,2.80148741 L17.2752941,5.96659039 C10.8621849,7.2687643 6.02812325,13.0465675 6.02812325,19.9779176 L6.02812325,30.2559497 L0.536246499,38.4941648 C-0.0422408964,39.3618993 -0.103417367,40.4851259 0.377254902,41.4130435 C0.857927171,42.3409611 1.80156863,42.9212815 2.82957983,42.9212815 L37.2078431,42.9212815 C38.2358543,42.9212815 39.1794958,42.3408467 39.6601681,41.4130435 C40.1409524,40.4850114 40.0796639,39.3617849 39.5012885,38.4940503 L39.5012885,38.4940503 Z" id="Shape"></path>
                        </g>
                    </g>
                </g>
            </g>
        </g>
    </g>
</svg>