<?xml version="1.0" encoding="UTF-8"?>
<svg width="50px" height="48px" viewBox="0 0 50 48" version="1.1" xmlns="http://www.w3.org/2000/svg" xmlns:xlink="http://www.w3.org/1999/xlink">
    <!-- Generator: Sketch 43.2 (39069) - http://www.bohemiancoding.com/sketch -->
    <title>icon (1)</title>
    <desc>Created with Sketch.</desc>
    <defs></defs>
    <g id="Page-1" stroke="none" stroke-width="1" fill="none" fill-rule="evenodd">
        <g id="Profile-My-Story" transform="translate(-38.000000, -133.000000)" fill="#FFFFFF">
            <g id="Header-Nav" transform="translate(0.000000, 115.000000)">
                <g id="icon-(1)" transform="translate(38.000000, 18.000000)">
                    <g id="Capa_1">
                        <g id="Group">
                            <path d="M22.8769231,31.9746308 C22.625,31.8924006 21.0442308,30.2783941 22.0326923,27.2435265 L22.0192308,27.2435265 C24.5961538,24.5643523 26.8019231,20.2539606 26.8019231,16.0066758 C26.8019231,9.481806 22.2653846,6.06064773 17.2692308,6.06064773 C12.2692308,6.06064773 7.93269231,9.481806 7.93269231,16.0066758 C7.93269231,20.2692592 9.95384615,24.5968619 12.5442308,27.2741238 C13.5538462,29.9475611 11.7480769,31.8331184 11.3692308,31.9746308 C6.13846154,33.8831361 0,37.3674013 0,40.8038582 L0,42.0927685 C0,46.7760646 8.99423077,47.8412324 17.3192308,47.8412324 C25.6538462,47.8412324 34.5365385,46.7760646 34.5365385,42.0927685 L34.5365385,40.8038582 C34.5365385,37.2622231 28.3673077,33.8085552 22.8769231,31.9746308 L22.8769231,31.9746308 Z" id="Shape"></path>
                            <path d="M38.9596154,23.3710584 C38.725,23.2926529 37.2365385,22.9312225 38.1653846,20.0761139 L38.1538462,20.0761139 C40.5769231,17.5594877 42.2480769,13.5015235 42.2480769,9.51431561 C42.2480769,3.37764881 38.3826923,0.161109847 33.6865385,0.161109847 C30.2288462,0.161109847 27.25,1.91662874 25.9134615,5.28232944 C28.7192308,7.58668702 30.65,11.174218 30.65,16.0047634 C30.65,21.1623173 28.2192308,25.8685613 25.6769231,28.9053412 C29.7269231,30.4294682 36.0557692,33.4949331 37.8673077,38.1801415 C44.2480769,37.8282728 49.9230769,36.5106774 49.9230769,32.8810752 L49.9230769,31.6705703 C49.9211538,28.3431162 44.1211538,25.0940677 38.9596154,23.3710584 L38.9596154,23.3710584 Z" id="Shape"></path>
                        </g>
                    </g>
                </g>
            </g>
        </g>
    </g>
</svg>